<svg xmlns="http://www.w3.org/2000/svg" viewBox="0 0 104.74 20" height="32"><defs><style>.cls-1{fill:#ff424d;}.cls-2,.cls-3{fill:#fff;}.cls-2{fill-rule:evenodd;}</style></defs><g id="Layer_2" data-name="Layer 2"><g id="Layer_1-2" data-name="Layer 1"><rect class="cls-1" width="104.74" height="20" rx="10"/><path class="cls-2" d="M18.71,5.5a3.4,3.4,0,1,0,3.4,3.4A3.41,3.41,0,0,0,18.71,5.5Z"/><path class="cls-2" d="M12.66,14.57h1.66V5.5H12.66Z"/><path class="cls-3" d="M26.89,7.37H29A4,4,0,0,1,30,7.49a1.83,1.83,0,0,1,.67.33,1.21,1.21,0,0,1,.34.5,2.11,2.11,0,0,1,.09.62,1.54,1.54,0,0,1-.17.7,1.25,1.25,0,0,1-.61.53,1.63,1.63,0,0,1,.47.28,1.5,1.5,0,0,1,.29.34,1.31,1.31,0,0,1,.15.37,1.87,1.87,0,0,1,0,.4,1.92,1.92,0,0,1-.11.69,1.44,1.44,0,0,1-.37.57,1.77,1.77,0,0,1-.68.37,3.09,3.09,0,0,1-1,.14H26.89Zm2.18,2.45a1.25,1.25,0,0,0,.83-.22A.85.85,0,0,0,30.13,9a.69.69,0,0,0-.27-.61,1.67,1.67,0,0,0-.94-.19H27.87V9.82Zm0,2.7a2.52,2.52,0,0,0,.6-.06.87.87,0,0,0,.37-.2.61.61,0,0,0,.2-.3,1.18,1.18,0,0,0,.06-.39.9.9,0,0,0-.26-.69,1.27,1.27,0,0,0-.88-.24H27.87v1.88Z"/><path class="cls-3" d="M36,12.05a1.6,1.6,0,0,1-.57,1,2.05,2.05,0,0,1-1.32.38,2,2,0,0,1-1.58-.6A2.42,2.42,0,0,1,32,11.19a3,3,0,0,1,.16-1,2.11,2.11,0,0,1,.43-.73A1.8,1.8,0,0,1,33.25,9a2.39,2.39,0,0,1,.86-.16A2.33,2.33,0,0,1,35,9a1.78,1.78,0,0,1,.61.43,1.88,1.88,0,0,1,.36.67,3.34,3.34,0,0,1,.11.87v.41H33a1.62,1.62,0,0,0,.3,1,1,1,0,0,0,.86.36,1.12,1.12,0,0,0,.67-.17.9.9,0,0,0,.31-.5Zm-.86-1.32a1.35,1.35,0,0,0-.25-.84,1,1,0,0,0-.81-.31,1,1,0,0,0-.8.31,1.45,1.45,0,0,0-.32.84Z"/><path class="cls-3" d="M40.82,11.81a1.72,1.72,0,0,1-1.91,1.66A2.31,2.31,0,0,1,38,13.3a1.71,1.71,0,0,1-.65-.46,2.08,2.08,0,0,1-.39-.72,3.45,3.45,0,0,1-.12-.94,3.16,3.16,0,0,1,.14-.95,2.07,2.07,0,0,1,.42-.74A1.85,1.85,0,0,1,38.06,9,2.28,2.28,0,0,1,39,8.85a2,2,0,0,1,.78.13,1.39,1.39,0,0,1,.85.79,2.26,2.26,0,0,1,.17.56l-.94.15a1.36,1.36,0,0,0-.26-.61.73.73,0,0,0-.63-.25,1,1,0,0,0-.86.48,1.9,1.9,0,0,0-.18.49,2.65,2.65,0,0,0-.05.56,3,3,0,0,0,.05.61,1.43,1.43,0,0,0,.19.49.87.87,0,0,0,.33.33,1,1,0,0,0,.51.12.9.9,0,0,0,.66-.23,1.15,1.15,0,0,0,.29-.66Z"/><path class="cls-3" d="M43.69,13.47a2,2,0,0,1-1.58-.61,2.4,2.4,0,0,1-.56-1.7,2.81,2.81,0,0,1,.15-.94,2.09,2.09,0,0,1,.42-.73A1.84,1.84,0,0,1,42.8,9a2.34,2.34,0,0,1,.91-.17,2.25,2.25,0,0,1,.92.18,1.89,1.89,0,0,1,.67.47,2,2,0,0,1,.41.72,3,3,0,0,1,.14.92,3,3,0,0,1-.16,1,2.15,2.15,0,0,1-.45.73,1.84,1.84,0,0,1-.68.45A2.41,2.41,0,0,1,43.69,13.47Zm0-.77a1,1,0,0,0,.88-.42,2,2,0,0,0,.28-1.13A2,2,0,0,0,44.58,10a1,1,0,0,0-.88-.41,1,1,0,0,0-.88.42,1.9,1.9,0,0,0-.28,1.11,2.05,2.05,0,0,0,.27,1.13A1,1,0,0,0,43.7,12.7Z"/><path class="cls-3" d="M47.72,9v.62a1.62,1.62,0,0,1,1.06-.72,1.87,1.87,0,0,1,.34,0,1.27,1.27,0,0,1,.71.22,1.21,1.21,0,0,1,.4.56,1.74,1.74,0,0,1,1.42-.79,1.26,1.26,0,0,1,1,.39A1.87,1.87,0,0,1,53,10.47v2.86H52v-2.6a2.6,2.6,0,0,0,0-.53,1,1,0,0,0-.12-.33.41.41,0,0,0-.2-.17.88.88,0,0,0-.29,0,1,1,0,0,0-.44.09.87.87,0,0,0-.32.24,1.05,1.05,0,0,0-.2.34,1.23,1.23,0,0,0-.06.39v2.61h-1v-2.7a1.18,1.18,0,0,0-.17-.76.57.57,0,0,0-.47-.21.93.93,0,0,0-.3.05,1.19,1.19,0,0,0-.33.18,1.14,1.14,0,0,0-.28.33,1,1,0,0,0-.12.51v2.6h-1V9Z"/><path class="cls-3" d="M57.9,12.05a1.61,1.61,0,0,1-.58,1,2.41,2.41,0,0,1-2.89-.22,2.42,2.42,0,0,1-.54-1.68,2.8,2.8,0,0,1,.16-1,2,2,0,0,1,.43-.73A1.8,1.8,0,0,1,55.15,9,2.34,2.34,0,0,1,56,8.85a2.25,2.25,0,0,1,.87.16,1.6,1.6,0,0,1,.61.43,1.88,1.88,0,0,1,.36.67A3,3,0,0,1,58,11v.41H54.84a1.62,1.62,0,0,0,.3,1,1,1,0,0,0,.86.36,1.13,1.13,0,0,0,.68-.17.88.88,0,0,0,.3-.5ZM57,10.73a1.29,1.29,0,0,0-.25-.84,1,1,0,0,0-.8-.31,1,1,0,0,0-.8.31,1.38,1.38,0,0,0-.32.84Z"/><path class="cls-3" d="M63.38,12.76a2,2,0,0,1-.59.49,1.75,1.75,0,0,1-.85.19,2.14,2.14,0,0,1-.58-.08,1.19,1.19,0,0,1-.46-.24.94.94,0,0,1-.31-.4,1.34,1.34,0,0,1-.12-.58,1.24,1.24,0,0,1,.2-.73A1.34,1.34,0,0,1,61.2,11a2.25,2.25,0,0,1,.72-.22,5.42,5.42,0,0,1,.8-.08l.64,0v-.18a.84.84,0,0,0-.23-.68,1,1,0,0,0-.63-.19,1.13,1.13,0,0,0-.65.15.71.71,0,0,0-.28.44l-.87-.1a1.3,1.3,0,0,1,.58-.92,2.26,2.26,0,0,1,1.26-.3,2.29,2.29,0,0,1,.85.14,1.27,1.27,0,0,1,.54.37,1.2,1.2,0,0,1,.28.55,2.66,2.66,0,0,1,.08.71v2.71h-.91Zm-.63-1.46a4.88,4.88,0,0,0-.69.09,1.25,1.25,0,0,0-.4.18.54.54,0,0,0-.19.24.92.92,0,0,0,0,.29.58.58,0,0,0,.18.45.8.8,0,0,0,.53.16,1.22,1.22,0,0,0,.92-.32,1.2,1.2,0,0,0,.3-.86v-.25Z"/><path class="cls-3" d="M67.19,9h.94v.6A1.87,1.87,0,0,1,68.74,9a1.68,1.68,0,0,1,.79-.19,1.78,1.78,0,0,1,.8.17,1.51,1.51,0,0,1,.57.46,2,2,0,0,1,.35.72,4,4,0,0,1,.11.94,3.59,3.59,0,0,1-.13,1,2.35,2.35,0,0,1-.38.74,1.79,1.79,0,0,1-.6.46,1.83,1.83,0,0,1-.79.17,1.8,1.8,0,0,1-.68-.14,1.48,1.48,0,0,1-.63-.48V15h-1Zm1,2.25a2.41,2.41,0,0,0,.09.71,1.6,1.6,0,0,0,.25.45.77.77,0,0,0,.36.23,1.21,1.21,0,0,0,.43.07,1,1,0,0,0,.43-.09.87.87,0,0,0,.35-.26,1.34,1.34,0,0,0,.23-.48,2.48,2.48,0,0,0,.08-.71,2.47,2.47,0,0,0-.08-.72A1.38,1.38,0,0,0,70,10a.79.79,0,0,0-.33-.25,1.1,1.1,0,0,0-.4-.08,1.14,1.14,0,0,0-.84.33A1.48,1.48,0,0,0,68.14,11Z"/><path class="cls-3" d="M74.93,12.76a2,2,0,0,1-.6.49,1.7,1.7,0,0,1-.85.19,2.14,2.14,0,0,1-.58-.08,1.26,1.26,0,0,1-.46-.24,1.13,1.13,0,0,1-.31-.4,1.5,1.5,0,0,1-.11-.58,1.24,1.24,0,0,1,.2-.73,1.31,1.31,0,0,1,.52-.44,2.42,2.42,0,0,1,.72-.22,5.56,5.56,0,0,1,.81-.08l.64,0v-.18a.81.81,0,0,0-.24-.68.94.94,0,0,0-.62-.19,1.17,1.17,0,0,0-.66.15.75.75,0,0,0-.28.44l-.87-.1a1.3,1.3,0,0,1,.58-.92,2.3,2.3,0,0,1,1.26-.3,2.34,2.34,0,0,1,.86.14,1.41,1.41,0,0,1,.54.37,1.43,1.43,0,0,1,.28.55,3.15,3.15,0,0,1,.08.71v2.71h-.91ZM74.3,11.3a4.88,4.88,0,0,0-.69.09,1.25,1.25,0,0,0-.4.18.47.47,0,0,0-.19.24.93.93,0,0,0,0,.29.58.58,0,0,0,.18.45.82.82,0,0,0,.53.16,1.23,1.23,0,0,0,.93-.32,1.2,1.2,0,0,0,.3-.86v-.25Z"/><path class="cls-3" d="M76.46,9.74V9h.68V7.82h1V9h1.08v.75H78.09V12a.72.72,0,0,0,.14.49.53.53,0,0,0,.41.15l.27,0a1.14,1.14,0,0,0,.25-.06l.14.71a2.65,2.65,0,0,1-.87.14,1.18,1.18,0,0,1-1-.38,1.8,1.8,0,0,1-.29-1.11V9.74Z"/><path class="cls-3" d="M80.84,9v.64a1.6,1.6,0,0,1,.54-.53,1.3,1.3,0,0,1,.68-.19h.24l.19,0-.11.88a1.2,1.2,0,0,0-.2,0H82a1.16,1.16,0,0,0-.47.09,1,1,0,0,0-.33.23.75.75,0,0,0-.21.32.92.92,0,0,0-.07.36v2.54h-1V9Z"/><path class="cls-3" d="M85,13.47a2,2,0,0,1-1.58-.61,2.4,2.4,0,0,1-.56-1.7,2.81,2.81,0,0,1,.15-.94,1.82,1.82,0,0,1,.42-.73A1.89,1.89,0,0,1,84.06,9,2.43,2.43,0,0,1,85,8.85,2.25,2.25,0,0,1,85.9,9a1.89,1.89,0,0,1,.67.47,2.12,2.12,0,0,1,.41.72,3,3,0,0,1,.13.92,3,3,0,0,1-.15,1,2.15,2.15,0,0,1-.45.73,1.84,1.84,0,0,1-.68.45A2.41,2.41,0,0,1,85,13.47Zm0-.77a1,1,0,0,0,.88-.42,2,2,0,0,0,.28-1.13A2,2,0,0,0,85.85,10,1,1,0,0,0,85,9.62a1,1,0,0,0-.88.42,1.9,1.9,0,0,0-.28,1.11,2.05,2.05,0,0,0,.27,1.13A1,1,0,0,0,85,12.7Z"/><path class="cls-3" d="M89,9v.63A1.86,1.86,0,0,1,89.64,9a1.73,1.73,0,0,1,.78-.19c1,0,1.45.54,1.45,1.61v2.87h-1V10.61a1.09,1.09,0,0,0-.2-.74.7.7,0,0,0-.56-.21,1.34,1.34,0,0,0-.46.08,1.13,1.13,0,0,0-.36.24,1.21,1.21,0,0,0-.24.35,1,1,0,0,0-.09.41v2.59h-1V9Z"/></g></g></svg>