<svg xmlns="http://www.w3.org/2000/svg" viewBox="0 0 104.74 20" height="32"><defs><style>.cls-1{fill:#ff424d;}.cls-2,.cls-3{fill:#fff;}.cls-2{fill-rule:evenodd;}</style></defs><g id="Layer_2" data-name="Layer 2"><g id="Layer_1-2" data-name="Layer 1"><rect class="cls-1" width="104.74" height="20" rx="10"/><path class="cls-2" d="M18.71,5.5a3.4,3.4,0,1,0,3.4,3.4A3.41,3.41,0,0,0,18.71,5.5Z"/><path class="cls-2" d="M12.66,14.57h1.66V5.5H12.66Z"/><path class="cls-3" d="M27,7.47h2A3.82,3.82,0,0,1,30,7.6a1.7,1.7,0,0,1,.66.33,1.07,1.07,0,0,1,.33.49,1.74,1.74,0,0,1,.1.61,1.54,1.54,0,0,1-.19.74,1.4,1.4,0,0,1-.67.55,2.43,2.43,0,0,1,.51.28,1.32,1.32,0,0,1,.32.35,1.18,1.18,0,0,1,.17.4,1.93,1.93,0,0,1,0,.42,2,2,0,0,1-.11.7,1.45,1.45,0,0,1-.37.55,1.72,1.72,0,0,1-.67.37,3.09,3.09,0,0,1-1,.14H27ZM29.07,10a1.59,1.59,0,0,0,1-.25.92.92,0,0,0,.29-.74A.8.8,0,0,0,30,8.34,2,2,0,0,0,29,8.12H27.73V10Zm0,2.85a2.61,2.61,0,0,0,.69-.08,1.07,1.07,0,0,0,.44-.22.67.67,0,0,0,.23-.34,1.53,1.53,0,0,0,.06-.45,1,1,0,0,0-.31-.82,1.55,1.55,0,0,0-1.05-.28H27.73v2.19Z"/><path class="cls-3" d="M36,12.3a1.57,1.57,0,0,1-.56,1,2.05,2.05,0,0,1-1.3.37,2,2,0,0,1-1.54-.61,2.45,2.45,0,0,1-.53-1.69,3.11,3.11,0,0,1,.15-1,1.93,1.93,0,0,1,.43-.74,1.73,1.73,0,0,1,.65-.45A2.13,2.13,0,0,1,34.15,9a2.08,2.08,0,0,1,.87.16,1.69,1.69,0,0,1,.6.45,2,2,0,0,1,.35.67,3.32,3.32,0,0,1,.11.86v.37H32.82a2.06,2.06,0,0,0,.09.62,1.64,1.64,0,0,0,.26.49,1.09,1.09,0,0,0,.41.32A1.53,1.53,0,0,0,35,12.86a1,1,0,0,0,.35-.56ZM35.34,11a2,2,0,0,0-.07-.57,1.12,1.12,0,0,0-.21-.44,1,1,0,0,0-.37-.28,1.32,1.32,0,0,0-.55-.1,1.18,1.18,0,0,0-.91.35,1.73,1.73,0,0,0-.39,1Z"/><path class="cls-3" d="M40.86,12.05a2,2,0,0,1-.58,1.18,1.86,1.86,0,0,1-1.32.44,2.19,2.19,0,0,1-.88-.17,1.68,1.68,0,0,1-.65-.46,2,2,0,0,1-.39-.73,3.48,3.48,0,0,1-.13-1,2.93,2.93,0,0,1,.15-1,2.05,2.05,0,0,1,.41-.74,1.85,1.85,0,0,1,.66-.47A2.26,2.26,0,0,1,39,9a1.78,1.78,0,0,1,1.23.39,1.81,1.81,0,0,1,.55,1.06l-.74.14a2.66,2.66,0,0,0-.11-.39,1,1,0,0,0-.2-.31,1,1,0,0,0-.31-.21,1.41,1.41,0,0,0-1,.06,1.12,1.12,0,0,0-.41.37,1.66,1.66,0,0,0-.23.54,3.62,3.62,0,0,0-.07.67,2.87,2.87,0,0,0,.07.67,1.51,1.51,0,0,0,.22.55,1,1,0,0,0,.4.37,1.21,1.21,0,0,0,.6.14,1,1,0,0,0,.79-.28,1.28,1.28,0,0,0,.34-.73Z"/><path class="cls-3" d="M43.69,13.67a2.28,2.28,0,0,1-.89-.17,1.69,1.69,0,0,1-.66-.45,2.09,2.09,0,0,1-.42-.73,3.32,3.32,0,0,1,0-1.94,2.2,2.2,0,0,1,.43-.73,2,2,0,0,1,.68-.48A2.21,2.21,0,0,1,43.71,9a2.28,2.28,0,0,1,.89.16,1.83,1.83,0,0,1,.66.46,1.89,1.89,0,0,1,.42.73,2.85,2.85,0,0,1,.15,1,3,3,0,0,1-.15,1,2,2,0,0,1-.43.74,1.8,1.8,0,0,1-.67.47A2.31,2.31,0,0,1,43.69,13.67Zm0-.61a1.44,1.44,0,0,0,.61-.13,1.22,1.22,0,0,0,.42-.36A1.48,1.48,0,0,0,45,12a3.13,3.13,0,0,0,.08-.7,3,3,0,0,0-.08-.69,1.48,1.48,0,0,0-.24-.54,1.1,1.1,0,0,0-.42-.35,1.31,1.31,0,0,0-.61-.13,1.28,1.28,0,0,0-.61.13,1.07,1.07,0,0,0-.41.35,1.49,1.49,0,0,0-.25.54,3,3,0,0,0-.07.69,3,3,0,0,0,.07.7,1.48,1.48,0,0,0,.24.54,1.22,1.22,0,0,0,.42.36A1.41,1.41,0,0,0,43.7,13.06Z"/><path class="cls-3" d="M46.82,9.15h.73v.67a2,2,0,0,1,.65-.61,1.51,1.51,0,0,1,.73-.2,1.34,1.34,0,0,1,.79.21,1.29,1.29,0,0,1,.45.61,2.06,2.06,0,0,1,.68-.61A1.63,1.63,0,0,1,51.66,9a1.38,1.38,0,0,1,1,.35A1.58,1.58,0,0,1,53,10.49v3h-.74V10.66a1.76,1.76,0,0,0-.05-.49.68.68,0,0,0-.15-.32.51.51,0,0,0-.24-.16,1.06,1.06,0,0,0-.33,0,1.56,1.56,0,0,0-.41.06,1.33,1.33,0,0,0-.41.24,1.2,1.2,0,0,0-.28.35.88.88,0,0,0-.11.47v2.76h-.74V10.67a1.24,1.24,0,0,0-.2-.8.71.71,0,0,0-.57-.22A1.18,1.18,0,0,0,48,10a2.13,2.13,0,0,0-.27.35,1,1,0,0,0-.13.57v2.61h-.74Z"/><path class="cls-3" d="M57.91,12.3a1.57,1.57,0,0,1-.56,1,2.05,2.05,0,0,1-1.3.37,2,2,0,0,1-1.54-.61A2.5,2.5,0,0,1,54,11.37a3.11,3.11,0,0,1,.15-1,1.93,1.93,0,0,1,.43-.74,1.69,1.69,0,0,1,.66-.45A2,2,0,0,1,56.05,9a2.08,2.08,0,0,1,.87.16,1.69,1.69,0,0,1,.6.45,2,2,0,0,1,.35.67,3.32,3.32,0,0,1,.11.86v.37H54.72a2.06,2.06,0,0,0,.09.62,1.64,1.64,0,0,0,.26.49,1.17,1.17,0,0,0,.41.32,1.53,1.53,0,0,0,1.37-.09,1,1,0,0,0,.35-.56ZM57.24,11a2.49,2.49,0,0,0-.06-.57A1.3,1.3,0,0,0,57,10a1,1,0,0,0-.37-.28,1.32,1.32,0,0,0-.55-.1,1.18,1.18,0,0,0-.91.35,1.73,1.73,0,0,0-.39,1Z"/><path class="cls-3" d="M63.58,12.93a2.08,2.08,0,0,1-.6.49,1.83,1.83,0,0,1-.91.21,2,2,0,0,1-.61-.08,1.23,1.23,0,0,1-.47-.24,1.1,1.1,0,0,1-.31-.42,1.41,1.41,0,0,1-.11-.57,1.24,1.24,0,0,1,.19-.73,1.28,1.28,0,0,1,.51-.44,2.28,2.28,0,0,1,.71-.23,5.7,5.7,0,0,1,.83-.09l.75,0v-.17a1.19,1.19,0,0,0-.23-.81,1.07,1.07,0,0,0-.78-.24,1.33,1.33,0,0,0-.77.17.84.84,0,0,0-.32.48l-.67-.08a1.24,1.24,0,0,1,.57-.87A2.25,2.25,0,0,1,62.58,9a2.62,2.62,0,0,1,.8.11,1.41,1.41,0,0,1,.53.33,1.19,1.19,0,0,1,.29.53,2.53,2.53,0,0,1,.09.7v2.85h-.71Zm0-1.6-.7,0a4.65,4.65,0,0,0-.75.08,1.78,1.78,0,0,0-.47.18.66.66,0,0,0-.24.29.93.93,0,0,0-.08.39.7.7,0,0,0,.2.52.89.89,0,0,0,.66.2,1.52,1.52,0,0,0,1-.32,1.12,1.12,0,0,0,.36-.88Z"/><path class="cls-3" d="M67.3,9.15H68v.62a1.88,1.88,0,0,1,.63-.57A1.8,1.8,0,0,1,69.51,9a1.94,1.94,0,0,1,.82.17,1.57,1.57,0,0,1,.58.47,2.15,2.15,0,0,1,.35.73,3.39,3.39,0,0,1,.11.93,3.32,3.32,0,0,1-.13,1,2.09,2.09,0,0,1-.39.74,1.79,1.79,0,0,1-.62.47,1.93,1.93,0,0,1-1.54,0A1.61,1.61,0,0,1,68,13v2.19H67.3ZM68,11.46a2.57,2.57,0,0,0,.1.73,1.36,1.36,0,0,0,.27.49,1,1,0,0,0,.4.29,1.5,1.5,0,0,0,.52.09,1.45,1.45,0,0,0,.51-.1,1,1,0,0,0,.4-.3,1.7,1.7,0,0,0,.27-.54,3.09,3.09,0,0,0,.09-.8,2.63,2.63,0,0,0-.1-.81,1.48,1.48,0,0,0-.28-.53,1,1,0,0,0-.38-.28,1.42,1.42,0,0,0-.45-.08,1.32,1.32,0,0,0-.53.1,1.06,1.06,0,0,0-.43.29,1.26,1.26,0,0,0-.29.48,2.25,2.25,0,0,0-.1.67Z"/><path class="cls-3" d="M75.1,12.93a2.08,2.08,0,0,1-.6.49,1.83,1.83,0,0,1-.91.21,2,2,0,0,1-.61-.08,1.23,1.23,0,0,1-.47-.24,1,1,0,0,1-.31-.42,1.26,1.26,0,0,1-.11-.57,1.24,1.24,0,0,1,.19-.73,1.28,1.28,0,0,1,.51-.44,2.28,2.28,0,0,1,.71-.23,5.55,5.55,0,0,1,.83-.09l.75,0v-.17a1.14,1.14,0,0,0-.24-.81,1,1,0,0,0-.77-.24,1.31,1.31,0,0,0-.77.17.84.84,0,0,0-.32.48l-.67-.08a1.24,1.24,0,0,1,.57-.87A2.25,2.25,0,0,1,74.1,9a2.66,2.66,0,0,1,.8.11,1.41,1.41,0,0,1,.53.33,1.3,1.3,0,0,1,.29.53,2.53,2.53,0,0,1,.09.7v2.85H75.1Zm0-1.6-.7,0a4.65,4.65,0,0,0-.75.08,1.78,1.78,0,0,0-.47.18.69.69,0,0,0-.25.29,1.13,1.13,0,0,0-.07.39.7.7,0,0,0,.2.52.87.87,0,0,0,.66.2,1.54,1.54,0,0,0,1-.32,1.12,1.12,0,0,0,.36-.88Z"/><path class="cls-3" d="M77.19,9.73h-.68V9.15h.68V8h.73v1.2h1.17v.58H77.92V12.3a.82.82,0,0,0,.15.52.5.5,0,0,0,.44.19l.33,0,.25-.07.13.57a3.29,3.29,0,0,1-.37.1,3.18,3.18,0,0,1-.47,0,1.29,1.29,0,0,1-.6-.11.86.86,0,0,1-.37-.31,1.26,1.26,0,0,1-.18-.48,3.91,3.91,0,0,1,0-.61Z"/><path class="cls-3" d="M79.87,9.15h.73v.67a1.92,1.92,0,0,1,.58-.56,1.37,1.37,0,0,1,.7-.19,2.06,2.06,0,0,1,.39,0l-.09.69-.17,0h-.19a1.22,1.22,0,0,0-.41.07,1.19,1.19,0,0,0-.4.24,1.28,1.28,0,0,0-.29.37,1.15,1.15,0,0,0-.11.5v2.6h-.74Z"/><path class="cls-3" d="M84.71,13.67a2.24,2.24,0,0,1-.89-.17,1.69,1.69,0,0,1-.66-.45,2.09,2.09,0,0,1-.42-.73,3.32,3.32,0,0,1,0-1.94,2.2,2.2,0,0,1,.43-.73,2,2,0,0,1,.68-.48A2.21,2.21,0,0,1,84.73,9a2.28,2.28,0,0,1,.89.16,1.83,1.83,0,0,1,.66.46,1.89,1.89,0,0,1,.42.73,2.85,2.85,0,0,1,.15,1,3,3,0,0,1-.15,1,2,2,0,0,1-.43.74,1.8,1.8,0,0,1-.67.47A2.31,2.31,0,0,1,84.71,13.67Zm0-.61a1.44,1.44,0,0,0,.61-.13,1.22,1.22,0,0,0,.42-.36A1.48,1.48,0,0,0,86,12a3.13,3.13,0,0,0,.08-.7,3,3,0,0,0-.08-.69,1.48,1.48,0,0,0-.24-.54,1.1,1.1,0,0,0-.42-.35,1.31,1.31,0,0,0-.61-.13,1.28,1.28,0,0,0-.61.13,1.07,1.07,0,0,0-.41.35,1.49,1.49,0,0,0-.25.54,3,3,0,0,0-.07.69,3,3,0,0,0,.07.7,1.48,1.48,0,0,0,.24.54,1.22,1.22,0,0,0,.42.36A1.41,1.41,0,0,0,84.72,13.06Z"/><path class="cls-3" d="M87.84,9.15h.73v.67a1.86,1.86,0,0,1,.71-.62A1.8,1.8,0,0,1,90.1,9a1.41,1.41,0,0,1,1.11.41,1.75,1.75,0,0,1,.36,1.19v2.92h-.74V10.76a1.27,1.27,0,0,0-.22-.86.83.83,0,0,0-.68-.25A1.31,1.31,0,0,0,89,10a1.44,1.44,0,0,0-.32.4,1,1,0,0,0-.11.53v2.6h-.74Z"/></g></g></svg>