<svg xmlns="http://www.w3.org/2000/svg" viewBox="0 0 48 45.56"><g><path d="M36.82,13.93A12.75,12.75,0,0,0,30.53,2.86a12.48,12.48,0,0,0-12.36-.19,12.11,12.11,0,0,0-6.24,10.25,11.7,11.7,0,0,0,5.48,10.27,1.47,1.47,0,0,1-1.53,2.5l-.07,0,0,0a14.24,14.24,0,0,1-6-12.83A13.84,13.84,0,0,1,12.12,6a14,14,0,0,1,5.37-4.64,13.48,13.48,0,0,1,18,6A13.15,13.15,0,0,1,36.82,13.93Z"/><path d="M7.21,20.17A13,13,0,0,0,2.5,24.85a12.76,12.76,0,0,0-1.74,6.3A12.46,12.46,0,0,0,6.77,42a12.18,12.18,0,0,0,12,.3,12,12,0,0,0,4.41-4.18,11.6,11.6,0,0,0,1.74-5.72A1.45,1.45,0,0,1,26.43,31a1.46,1.46,0,0,1,1.42,1.51s0,0,0,.08h0a14.32,14.32,0,0,1-8.07,11.67A14,14,0,0,1,6,43.19a13.8,13.8,0,0,1-4.6-5.29A13.54,13.54,0,0,1,0,31.12,13.18,13.18,0,0,1,7.21,20.17Z"/><path d="M27.42,42.68a12.81,12.81,0,0,0,6.39,1.77,13,13,0,0,0,6.33-1.64A12.48,12.48,0,0,0,46.49,32.2a12.07,12.07,0,0,0-5.73-10.55,11.73,11.73,0,0,0-5.82-1.72,11.06,11.06,0,0,0-5.81,1.34,1.47,1.47,0,0,1-1.37-2.6l0,0h0A14.39,14.39,0,0,1,42,19.81a15.68,15.68,0,0,1,2.7,2.44,15.28,15.28,0,0,1,2,3,13.76,13.76,0,0,1,1.32,7,13.57,13.57,0,0,1-7.48,11.19,13.39,13.39,0,0,1-6.68,1.36A13,13,0,0,1,27.42,42.68Z"/><circle cx="23.82" cy="25.6" r="3.42"/></g></svg>