<svg xmlns="http://www.w3.org/2000/svg" viewBox="0 0 48 48"><g><rect fill="none" width="48" height="48"/><path d="M36.82,15.15A12.75,12.75,0,0,0,30.53,4.08a12.48,12.48,0,0,0-12.36-.19,12.1,12.1,0,0,0-6.24,10.25,11.7,11.7,0,0,0,5.48,10.27,1.47,1.47,0,0,1-1.53,2.5l-.07,0,0,0A14.24,14.24,0,0,1,9.74,14,13.87,13.87,0,0,1,17.49,2.59a13.48,13.48,0,0,1,18,6A13.13,13.13,0,0,1,36.82,15.15Z"/><path d="M7.21,21.39A13.1,13.1,0,0,0,2.5,26.06,12.83,12.83,0,0,0,.76,32.37a12.65,12.65,0,0,0,1.59,6.24,12.4,12.4,0,0,0,4.42,4.56A11.93,11.93,0,0,0,23.18,39.3a11.6,11.6,0,0,0,1.74-5.72,1.45,1.45,0,0,1,1.51-1.41,1.46,1.46,0,0,1,1.42,1.51s0,0,0,.07v0a14.33,14.33,0,0,1-8.07,11.66A14,14,0,0,1,6,44.41a13.8,13.8,0,0,1-4.6-5.29A13.54,13.54,0,0,1,0,32.34a13.18,13.18,0,0,1,7.18-11Z"/><path d="M27.42,43.9a12.81,12.81,0,0,0,6.39,1.77A13,13,0,0,0,40.14,44a12.46,12.46,0,0,0,6.35-10.61,12.05,12.05,0,0,0-5.73-10.54,11.73,11.73,0,0,0-5.82-1.72,11.15,11.15,0,0,0-5.81,1.33,1.47,1.47,0,1,1-1.37-2.59l0,0h0A14.37,14.37,0,0,1,42,21a15.68,15.68,0,0,1,2.7,2.44,15,15,0,0,1,2,3,13.76,13.76,0,0,1,1.32,7,13.57,13.57,0,0,1-7.48,11.19A13.39,13.39,0,0,1,33.8,46,13,13,0,0,1,27.42,43.9Z"/><circle cx="23.82" cy="26.82" r="3.42"/></g></svg>